# xmcd
#
# Track frame offsets:
#	187
#	11937
#	27600
#	43905
#	61677
#	79145
#	95297
#	110267
#	125605
#	138127
#
# Disc length: 2086 seconds
#
# Revision: 4
# Processed by: cddbd v1.5.2PL0 Copyright (c) Steve Scherf et al.
# Submitted via: EZCDAudioConverter 6.0.2.1
#
DISCID=8108240a
DTITLE=Jesse Hunter - A Man Like Me
DYEAR=1994
DGENRE=Country
TTITLE0=Born Ready
TTITLE1=A Man Like Me
TTITLE2=By The Way She's Lookin'
TTITLE3=We Discovered Fire
TTITLE4=Long Legged Hannah (From Butte, Montana)
TTITLE5=I Whisper Your Name
TTITLE6=Somewhere Between The Country And The Blues
TTITLE7=Long Steady Rain
TTITLE8=Carry On
TTITLE9=L.A. Freeway
EXTD=
EXTT0=
EXTT1=
EXTT2=
EXTT3=
EXTT4=
EXTT5=
EXTT6=
EXTT7=
EXTT8=
EXTT9=
PLAYORDER=
